<svg width="184" height="50" viewBox="0 0 184 50" fill="none" xmlns="http://www.w3.org/2000/svg">
<rect x="140.425" y="2.98667" width="13" height="42" rx="2" transform="rotate(-4.35276 140.425 2.98667)" fill="#F3C45C" stroke="#201200" stroke-width="2"/>
<path d="M167.036 7.14865C170.042 6.85268 172.585 7.31178 174.622 8.57924C176.713 9.88059 177.87 12.1433 178.174 15.2359L179.242 26.0799C179.334 27.0138 179.604 27.7091 180.016 28.2066C180.425 28.6996 181.007 29.0403 181.803 29.2073L182.48 29.3487L182.133 29.9471C181.595 30.873 180.825 31.6711 179.839 32.3455L179.834 32.3489C178.861 32.9979 177.789 33.3814 176.625 33.4961C175.374 33.6192 174.28 33.445 173.381 32.9254C172.695 32.5285 172.153 31.9479 171.747 31.2061C169.956 33.2262 167.642 34.3805 164.825 34.6578C162.547 34.8821 160.616 34.5045 159.082 33.4678C157.525 32.4162 156.661 30.8046 156.454 28.7092C156.195 26.0721 157.381 23.8611 159.868 22.1007C162.277 20.3817 165.65 19.2742 169.943 18.739L169.544 14.6873C169.444 13.6743 169.171 13.0267 168.803 12.6515C168.453 12.2954 167.946 12.1156 167.195 12.1896C166.611 12.2472 166.163 12.4742 165.82 12.8647L165.819 12.8657C165.525 13.1985 165.382 13.6462 165.443 14.2707C165.499 14.8388 165.755 15.3616 166.252 15.8455L166.571 16.1565L166.297 16.5092C165.239 17.877 163.798 18.6492 162.012 18.825C160.325 18.9912 158.933 18.7449 157.924 17.9852L157.916 17.9792C156.96 17.2278 156.426 16.1784 156.299 14.8815C156.099 12.8466 157.195 11.1196 159.336 9.70154L159.338 9.70038C161.5 8.28667 164.072 7.44057 167.036 7.14865ZM170.349 22.8655C168.602 23.1834 167.359 23.6796 166.569 24.322C165.734 25.0009 165.378 25.858 165.486 26.9515C165.553 27.6363 165.788 28.0457 166.12 28.2835C166.466 28.5311 167.014 28.6625 167.844 28.5808C168.927 28.4742 169.89 27.899 170.733 26.7714L170.349 22.8655Z" fill="#F3A85C" stroke="#201200"/>
<path d="M128.336 12.9328C132.126 12.9328 135.235 14.107 137.614 16.4845C140.009 18.8452 141.172 22.2065 141.172 26.4884C141.172 30.7729 139.993 34.1497 137.567 36.5412L137.566 36.5402C135.187 38.9181 132.078 40.0929 128.288 40.0929C124.527 40.0929 121.433 38.9169 119.055 36.5382C116.663 34.1464 115.5 30.771 115.5 26.4884C115.5 22.2065 116.662 18.8452 119.057 16.4845C121.436 14.1066 124.546 12.9328 128.336 12.9328ZM127.712 17.5812C126.516 17.5812 125.649 18.0837 125.05 19.1291C124.426 20.2163 124.084 21.912 124.084 24.2804C124.084 24.7971 124.101 25.3328 124.137 25.8869L124.179 26.4474V26.4582C124.369 29.5834 124.899 31.8586 125.725 33.3371C126.532 34.7836 127.604 35.4445 128.96 35.4445C130.154 35.4445 131.021 34.9388 131.621 33.8849C132.245 32.7892 132.588 31.0813 132.588 28.6964C132.588 28.0401 132.556 27.3175 132.493 26.5285V26.5246C132.271 23.4153 131.727 21.1504 130.9 19.6779C130.091 18.2354 129.033 17.5812 127.712 17.5812Z" fill="#F3A85C" stroke="#201200"/>
<path d="M103 17.9328C105.155 17.9328 106.956 18.7268 108.365 20.3078C109.788 21.9039 110.46 24.1859 110.46 27.0724V39.1213C110.46 40.7643 110.943 41.6685 111.73 42.0871L112.275 42.3771L111.879 42.8498C110.634 44.3365 109.039 45.0929 107.128 45.0929C105.455 45.0929 104.118 44.58 103.214 43.4826C102.325 42.4038 101.924 40.8409 101.924 38.881V28.1769C101.924 27.1061 101.657 26.3443 101.188 25.8234L101.18 25.8136L101.171 25.8029C100.74 25.2706 100.112 24.9806 99.208 24.9806C98.3555 24.9806 97.4838 25.3768 96.5859 26.2746L96.5791 26.2804C95.7214 27.1097 95.0721 28.3833 94.668 30.1564V39.1213C94.6681 40.7575 95.1627 41.6623 95.9814 42.0841L96.5518 42.3781L96.127 42.8595C94.8228 44.3353 93.2171 45.0929 91.3359 45.0929C89.6625 45.0929 88.3257 44.58 87.4219 43.4826C86.5335 42.4038 86.1319 40.8409 86.1318 38.881V23.8566C86.1318 22.3029 85.6328 21.3978 84.7656 20.9386L84.2051 20.6418L84.625 20.1652C85.9227 18.6968 87.4783 17.9328 89.2725 17.9328C90.9765 17.9329 92.3334 18.3669 93.2314 19.3341H93.2324C93.8593 19.9872 94.2669 20.874 94.4873 21.9591C95.2929 20.8401 96.2898 19.9483 97.4775 19.2912C99.0967 18.3811 100.942 17.9328 103 17.9328Z" fill="#F3A85C" stroke="#201200"/>
<path d="M72.1436 12.9328C75.1641 12.9328 77.6501 13.6389 79.5527 15.0998C81.5062 16.5997 82.4355 18.9648 82.4355 22.0724V32.9689C82.4356 33.9073 82.6366 34.6258 82.998 35.1613C83.3562 35.6919 83.9023 36.088 84.6777 36.3322L85.3379 36.5392L84.9336 37.1007C84.3081 37.9695 83.4637 38.6883 82.416 39.2629L82.4111 39.2658C81.3787 39.8164 80.2736 40.0929 79.1035 40.0929C77.8472 40.0929 76.7762 39.8123 75.9326 39.2072C75.2883 38.745 74.8059 38.114 74.4746 37.3361C72.4938 39.1709 70.0778 40.0929 67.248 40.0929C64.9585 40.0929 63.0738 39.5279 61.6484 38.3459C60.2026 37.1468 59.5 35.4582 59.5 33.3527C59.5 30.7028 60.8971 28.6187 63.5449 27.1105C66.1107 25.6358 69.5757 24.8641 73.9004 24.7521V20.6808C73.9004 19.6629 73.6924 18.9917 73.3623 18.5822C73.0488 18.1935 72.5623 17.965 71.8076 17.965C71.2204 17.9651 70.7533 18.1472 70.373 18.5021L70.3721 18.5031C70.0465 18.8054 69.8604 19.237 69.8604 19.8644C69.8604 20.4353 70.0642 20.9807 70.5107 21.5109L70.7979 21.8517L70.4912 22.1759C69.3036 23.4334 67.7938 24.0607 66 24.0607C64.3039 24.0607 62.9429 23.6793 62.0137 22.8244L62.0059 22.8175C61.128 21.9761 60.7002 20.8795 60.7002 19.5763C60.7004 17.5316 61.961 15.9204 64.2305 14.7189L64.2324 14.7179C66.5229 13.5229 69.1648 12.9328 72.1436 12.9328ZM73.9004 28.8986C72.1308 29.0438 70.8455 29.4159 69.9961 29.9777C69.0984 30.5715 68.6602 31.3897 68.6602 32.4884C68.6602 33.1765 68.8536 33.6069 69.1611 33.8761C69.4815 34.1565 70.0137 34.3409 70.8477 34.341C71.9362 34.341 72.9505 33.8629 73.9004 32.8234V28.8986Z" fill="#F3A85C" stroke="#201200"/>
<path d="M54.5378 12.3008C56.1453 12.3008 57.503 12.7826 58.5681 13.7735C59.6788 14.7767 60.2224 16.1193 60.2224 17.7451C60.2223 19.334 59.814 20.659 58.9499 21.668L58.9509 21.669C58.0894 22.6803 56.7897 23.1406 55.1618 23.1406C54.94 23.1406 54.4977 23.1054 53.864 23.042L53.3034 22.9864L53.4255 22.4365C53.5573 21.8433 53.6061 21.5339 53.6061 21.4405C53.6061 20.7467 53.4016 20.2678 53.0446 19.9346L53.0319 19.9229L53.0202 19.9102C52.6693 19.5342 52.2428 19.3487 51.7057 19.3487C50.9872 19.3487 50.3978 19.6137 49.9069 20.1651C49.4074 20.7262 48.9954 21.6037 48.7018 22.8467V33.4893C48.7019 35.1255 49.1965 36.0304 50.0153 36.4522L50.5856 36.7461L50.1608 37.2276C48.8567 38.7033 47.251 39.461 45.3698 39.461C43.6964 39.4609 42.3595 38.9481 41.4557 37.8506C40.5674 36.7718 40.1657 35.2089 40.1657 33.249V18.2246C40.1657 16.671 39.6667 15.7658 38.7995 15.3067L38.239 15.0098L38.6589 14.5332C39.963 13.0575 41.5687 12.3008 43.4499 12.3008C44.9642 12.3008 46.2092 12.7113 47.112 13.5957C47.7044 14.1761 48.1182 14.9326 48.3757 15.8418C48.9383 14.8934 49.6177 14.1243 50.4177 13.5469C51.5779 12.7096 52.9596 12.3008 54.5378 12.3008Z" fill="#F3A85C" stroke="#201200"/>
<path d="M21.2002 6.93281C24.6927 6.93284 27.6969 7.65119 30.1895 9.11348H30.1885C32.7021 10.5693 34.084 12.4017 34.084 14.633C34.0839 15.9727 33.439 17.0883 32.248 17.9641L32.2461 17.965C31.0999 18.7987 29.7793 19.2131 28.3037 19.2131C26.8425 19.213 25.5185 18.8544 24.3457 18.1301L24.0791 17.966L24.1104 17.6555C24.1409 17.3503 24.1562 17.0627 24.1562 16.7932C24.1562 15.4567 23.7732 14.3577 23.0254 13.466C22.3142 12.618 21.2256 12.1565 19.6641 12.1564C16.9248 12.1564 14.773 13.317 13.166 15.6818L13.1621 15.6877H13.1611C11.4431 18.1422 10.5645 21.3303 10.5645 25.2893C10.5645 29.2578 11.3834 32.2729 12.959 34.3957C14.5193 36.4661 16.7014 37.509 19.5684 37.509C21.5963 37.5089 23.024 37.0395 23.9443 36.1896C24.8572 35.3465 25.3564 34.0487 25.3564 32.2004V30.4445H24.3203C22.6626 30.4445 21.1665 30.4767 19.832 30.5402L19.5547 30.5539L19.3965 30.3254C18.7583 29.4034 18.4443 28.3419 18.4443 27.1604C18.4444 26.5142 18.6072 25.9343 18.96 25.4504C19.2672 25.029 19.6962 24.7101 20.2197 24.4807L20.4502 24.3879C21.6681 23.9045 23.6691 23.6848 26.3838 23.6848C27.7668 23.6848 28.9482 23.794 29.918 24.0217C30.8808 24.2477 31.667 24.5985 32.2314 25.1037C33.3796 26.1037 33.8916 27.7175 33.8916 29.801V42.9045C33.8916 44.541 34.3862 45.4465 35.2051 45.8684L35.7764 46.1623L35.3506 46.6437C34.0507 48.1146 32.4793 48.8771 30.6562 48.8771C28.9032 48.8771 27.5185 48.3857 26.623 47.3039C25.7471 46.2454 25.3565 44.6661 25.3564 42.6652V41.4152C23.4345 43.3323 20.7471 44.2687 17.3604 44.2687C13.5154 44.2687 9.97838 42.8727 6.7627 40.1164L6.75977 40.1135C5.18807 38.7424 3.91577 36.8997 2.93262 34.6057L2.92969 34.5998C1.97328 32.291 1.50005 29.7129 1.5 26.8732C1.5 21.0109 3.19713 16.2094 6.62598 12.5168C10.1023 8.77561 14.9847 6.93281 21.2002 6.93281Z" fill="#F3A85C" stroke="#201200"/>
<g filter="url(#filter0_nn_1_2)">
<rect x="140.425" y="2.98666" width="13" height="42" rx="2" transform="rotate(-4.35276 140.425 2.98666)" fill="#F3C45C"/>
</g>
<path d="M164.988 27.0009C165.142 28.5613 166.11 29.2538 167.893 29.0782C169.199 28.9496 170.318 28.2285 171.25 26.9149L170.793 22.2813C166.675 22.9118 164.74 24.485 164.988 27.0009ZM177.677 15.2852L178.745 26.1287C178.942 28.135 179.927 29.3242 181.7 29.6963C181.206 30.5489 180.491 31.2945 179.557 31.933C178.652 32.5366 177.658 32.8917 176.575 32.9984C174.219 33.2304 172.65 32.3237 171.87 30.2783C170.103 32.5745 167.738 33.8684 164.776 34.16C162.579 34.3764 160.774 34.0075 159.362 33.0532C157.95 32.099 157.146 30.6347 156.952 28.6603C156.714 26.24 157.782 24.1894 160.157 22.5086C162.56 20.7929 166.004 19.6821 170.488 19.1763L170.041 14.6383C169.831 12.5046 168.866 11.5224 167.146 11.6917C166.446 11.7607 165.878 12.0416 165.445 12.5345C165.04 12.9924 164.873 13.5876 164.945 14.32C165.014 15.0206 165.333 15.6484 165.902 16.2033C164.932 17.4564 163.619 18.1644 161.964 18.3275C160.339 18.4874 159.093 18.2403 158.225 17.5862C157.388 16.929 156.912 16.0113 156.796 14.833C156.621 13.0496 157.559 11.4781 159.612 10.1184C161.696 8.75559 164.188 7.93152 167.086 7.6462C170.015 7.35773 172.439 7.8104 174.358 9.00419C176.276 10.198 177.382 12.2916 177.677 15.2852Z" fill="#F3A85C"/>
<path d="M127.712 17.0808C124.96 17.0808 123.584 19.4808 123.584 24.2808C123.584 24.9848 123.616 25.7208 123.68 26.4888C124.064 32.7928 125.824 35.9448 128.96 35.9448C131.712 35.9448 133.088 33.5288 133.088 28.6968C133.088 28.0248 133.056 27.2888 132.992 26.4888C132.544 20.2168 130.784 17.0808 127.712 17.0808ZM119.408 16.8408C121.68 14.5688 124.656 13.4328 128.336 13.4328C132.016 13.4328 134.992 14.5688 137.264 16.8408C139.536 19.0808 140.672 22.2968 140.672 26.4888C140.672 30.6808 139.52 33.9128 137.216 36.1848C134.944 38.4568 131.968 39.5928 128.288 39.5928C124.64 39.5928 121.68 38.4568 119.408 36.1848C117.136 33.9128 116 30.6808 116 26.4888C116 22.2968 117.136 19.0808 119.408 16.8408Z" fill="#F3A85C"/>
<path d="M109.96 27.0728V39.1208C109.96 40.8488 110.472 41.9848 111.496 42.5288C110.344 43.9048 108.888 44.5928 107.128 44.5928C103.992 44.5928 102.424 42.6888 102.424 38.8808V28.1768C102.424 27.0248 102.136 26.1288 101.56 25.4888C101.016 24.8168 100.232 24.4808 99.208 24.4808C98.184 24.4808 97.192 24.9608 96.232 25.9208C95.272 26.8488 94.584 28.2408 94.168 30.0968V39.1208C94.168 40.8488 94.696 41.9848 95.752 42.5288C94.536 43.9048 93.064 44.5928 91.336 44.5928C88.2 44.5928 86.632 42.6888 86.632 38.8808V23.8568C86.632 22.1928 86.088 21.0728 85 20.4968C86.216 19.1208 87.64 18.4328 89.272 18.4328C90.904 18.4328 92.104 18.8488 92.872 19.6808C93.64 20.4808 94.072 21.7288 94.168 23.4248C95.032 21.7928 96.216 20.5608 97.72 19.7288C99.256 18.8648 101.016 18.4328 103 18.4328C105.016 18.4328 106.68 19.1688 107.992 20.6408C109.304 22.1128 109.96 24.2568 109.96 27.0728Z" fill="#F3A85C"/>
<path d="M68.16 32.4888C68.16 34.0568 69.056 34.8408 70.848 34.8408C72.16 34.8408 73.344 34.2328 74.4 33.0168V28.3608C70.24 28.5848 68.16 29.9608 68.16 32.4888ZM81.936 22.0728V32.9688C81.936 34.9848 82.8 36.2648 84.528 36.8088C83.952 37.6088 83.168 38.2808 82.176 38.8248C81.216 39.3368 80.192 39.5928 79.104 39.5928C76.736 39.5928 75.264 38.5368 74.688 36.4248C72.704 38.5368 70.224 39.5928 67.248 39.5928C65.04 39.5928 63.28 39.0488 61.968 37.9608C60.656 36.8728 60 35.3368 60 33.3528C60 30.9208 61.264 28.9848 63.792 27.5448C66.352 26.0728 69.888 25.3048 74.4 25.2408V20.6808C74.4 18.5368 73.536 17.4648 71.808 17.4648C71.104 17.4648 70.512 17.6888 70.032 18.1368C69.584 18.5528 69.36 19.1288 69.36 19.8648C69.36 20.5688 69.616 21.2248 70.128 21.8328C69.04 22.9848 67.664 23.5608 66 23.5608C64.368 23.5608 63.152 23.1928 62.352 22.4568C61.584 21.7208 61.2 20.7608 61.2 19.5768C61.2 17.7848 62.288 16.3128 64.464 15.1608C66.672 14.0088 69.232 13.4328 72.144 13.4328C75.088 13.4328 77.456 14.1208 79.248 15.4968C81.04 16.8728 81.936 19.0648 81.936 22.0728Z" fill="#F3A85C"/>
<path d="M40.6659 33.2488V18.2248C40.6659 16.5608 40.1219 15.4408 39.0339 14.8648C40.2499 13.4888 41.7219 12.8008 43.4499 12.8008C46.2979 12.8008 47.8659 14.3368 48.1539 17.4088C49.4339 14.3368 51.5619 12.8008 54.5379 12.8008C56.0419 12.8008 57.2739 13.2488 58.2339 14.1448C59.2259 15.0408 59.7219 16.2408 59.7219 17.7448C59.7219 19.2488 59.3379 20.4488 58.5699 21.3448C57.8339 22.2088 56.6979 22.6408 55.1619 22.6408C54.9699 22.6408 54.5539 22.6088 53.9139 22.5448C54.0419 21.9688 54.1059 21.6008 54.1059 21.4408C54.1059 20.6408 53.8659 20.0168 53.3859 19.5688C52.9379 19.0888 52.3779 18.8488 51.7059 18.8488C49.9779 18.8488 48.8099 20.1608 48.2019 22.7848V33.4888C48.2019 35.2168 48.7299 36.3528 49.7859 36.8968C48.5699 38.2728 47.0979 38.9608 45.3699 38.9608C42.2339 38.9608 40.6659 37.0568 40.6659 33.2488Z" fill="#F3A85C"/>
<path d="M33.392 29.8008V42.9048C33.392 44.6328 33.92 45.7688 34.976 46.3128C33.76 47.6888 32.32 48.3768 30.656 48.3768C28.992 48.3768 27.776 47.9128 27.008 46.9848C26.24 46.0568 25.856 44.6168 25.856 42.6648V40.0728C24.032 42.5368 21.2 43.7688 17.36 43.7688C13.648 43.7688 10.224 42.4248 7.088 39.7368C5.584 38.4248 4.352 36.6488 3.392 34.4088C2.464 32.1688 2 29.6568 2 26.8728C2 21.1128 3.664 16.4408 6.992 12.8568C10.352 9.24081 15.088 7.43281 21.2 7.43281C24.624 7.43281 27.536 8.13681 29.936 9.54481C32.368 10.9528 33.584 12.6488 33.584 14.6328C33.584 15.7848 33.04 16.7608 31.952 17.5608C30.896 18.3288 29.68 18.7128 28.304 18.7128C26.928 18.7128 25.696 18.3768 24.608 17.7048C24.64 17.3848 24.656 17.0808 24.656 16.7928C24.656 15.3528 24.24 14.1368 23.408 13.1448C22.576 12.1528 21.328 11.6568 19.664 11.6568C16.752 11.6568 14.448 12.9048 12.752 15.4008C10.96 17.9608 10.064 21.2568 10.064 25.2888C10.064 29.3208 10.896 32.4568 12.56 34.6968C14.224 36.9048 16.56 38.0088 19.568 38.0088C23.76 38.0088 25.856 36.0728 25.856 32.2008V29.9448H24.32C22.656 29.9448 21.152 29.9768 19.808 30.0408C19.232 29.2088 18.944 28.2488 18.944 27.1608C18.944 26.0408 19.504 25.2728 20.624 24.8568C21.744 24.4088 23.664 24.1848 26.384 24.1848C29.104 24.1848 30.944 24.6168 31.904 25.4808C32.896 26.3448 33.392 27.7848 33.392 29.8008Z" fill="#F3A85C"/>
<mask id="mask0_1_2" style="mask-type:alpha" maskUnits="userSpaceOnUse" x="2" y="7" width="180" height="42">
<path d="M164.988 27.0009C165.142 28.5613 166.11 29.2538 167.893 29.0782C169.199 28.9496 170.318 28.2285 171.25 26.9149L170.793 22.2813C166.675 22.9118 164.74 24.485 164.988 27.0009ZM177.677 15.2852L178.745 26.1287C178.942 28.135 179.927 29.3242 181.7 29.6963C181.206 30.5489 180.491 31.2945 179.557 31.933C178.652 32.5366 177.658 32.8917 176.575 32.9983C174.219 33.2304 172.65 32.3237 171.87 30.2783C170.103 32.5745 167.738 33.8684 164.776 34.16C162.579 34.3764 160.774 34.0075 159.362 33.0532C157.95 32.099 157.146 30.6347 156.952 28.6602C156.714 26.24 157.782 24.1894 160.157 22.5086C162.56 20.7929 166.004 19.6821 170.488 19.1763L170.041 14.6383C169.831 12.5046 168.866 11.5224 167.146 11.6917C166.446 11.7607 165.878 12.0416 165.445 12.5345C165.04 12.9924 164.873 13.5876 164.945 14.32C165.014 15.0206 165.333 15.6484 165.902 16.2033C164.932 17.4564 163.619 18.1644 161.964 18.3275C160.339 18.4874 159.093 18.2403 158.225 17.5862C157.388 16.929 156.912 16.0113 156.796 14.833C156.621 13.0496 157.559 11.4781 159.612 10.1184C161.696 8.75558 164.188 7.93152 167.086 7.64619C170.015 7.35773 172.439 7.81039 174.358 9.00419C176.276 10.198 177.382 12.2916 177.677 15.2852Z" fill="#F3A85C"/>
<path d="M127.712 17.0808C124.96 17.0808 123.584 19.4808 123.584 24.2808C123.584 24.9848 123.616 25.7208 123.68 26.4888C124.064 32.7928 125.824 35.9448 128.96 35.9448C131.712 35.9448 133.088 33.5288 133.088 28.6968C133.088 28.0248 133.056 27.2888 132.992 26.4888C132.544 20.2168 130.784 17.0808 127.712 17.0808ZM119.408 16.8408C121.68 14.5688 124.656 13.4328 128.336 13.4328C132.016 13.4328 134.992 14.5688 137.264 16.8408C139.536 19.0808 140.672 22.2968 140.672 26.4888C140.672 30.6808 139.52 33.9128 137.216 36.1848C134.944 38.4568 131.968 39.5928 128.288 39.5928C124.64 39.5928 121.68 38.4568 119.408 36.1848C117.136 33.9128 116 30.6808 116 26.4888C116 22.2968 117.136 19.0808 119.408 16.8408Z" fill="#F3A85C"/>
<path d="M109.96 27.0728V39.1208C109.96 40.8488 110.472 41.9848 111.496 42.5288C110.344 43.9048 108.888 44.5928 107.128 44.5928C103.992 44.5928 102.424 42.6888 102.424 38.8808V28.1768C102.424 27.0248 102.136 26.1288 101.56 25.4888C101.016 24.8168 100.232 24.4808 99.208 24.4808C98.184 24.4808 97.192 24.9608 96.232 25.9208C95.272 26.8488 94.584 28.2408 94.168 30.0968V39.1208C94.168 40.8488 94.696 41.9848 95.752 42.5288C94.536 43.9048 93.064 44.5928 91.336 44.5928C88.2 44.5928 86.632 42.6888 86.632 38.8808V23.8568C86.632 22.1928 86.088 21.0728 85 20.4968C86.216 19.1208 87.64 18.4328 89.272 18.4328C90.904 18.4328 92.104 18.8488 92.872 19.6808C93.64 20.4808 94.072 21.7288 94.168 23.4248C95.032 21.7928 96.216 20.5608 97.72 19.7288C99.256 18.8648 101.016 18.4328 103 18.4328C105.016 18.4328 106.68 19.1688 107.992 20.6408C109.304 22.1128 109.96 24.2568 109.96 27.0728Z" fill="#F3A85C"/>
<path d="M68.16 32.4888C68.16 34.0568 69.056 34.8408 70.848 34.8408C72.16 34.8408 73.344 34.2328 74.4 33.0168V28.3608C70.24 28.5848 68.16 29.9608 68.16 32.4888ZM81.936 22.0728V32.9688C81.936 34.9848 82.8 36.2648 84.528 36.8088C83.952 37.6088 83.168 38.2808 82.176 38.8248C81.216 39.3368 80.192 39.5928 79.104 39.5928C76.736 39.5928 75.264 38.5368 74.688 36.4248C72.704 38.5368 70.224 39.5928 67.248 39.5928C65.04 39.5928 63.28 39.0488 61.968 37.9608C60.656 36.8728 60 35.3368 60 33.3528C60 30.9208 61.264 28.9848 63.792 27.5448C66.352 26.0728 69.888 25.3048 74.4 25.2408V20.6808C74.4 18.5368 73.536 17.4648 71.808 17.4648C71.104 17.4648 70.512 17.6888 70.032 18.1368C69.584 18.5528 69.36 19.1288 69.36 19.8648C69.36 20.5688 69.616 21.2248 70.128 21.8328C69.04 22.9848 67.664 23.5608 66 23.5608C64.368 23.5608 63.152 23.1928 62.352 22.4568C61.584 21.7208 61.2 20.7608 61.2 19.5768C61.2 17.7848 62.288 16.3128 64.464 15.1608C66.672 14.0088 69.232 13.4328 72.144 13.4328C75.088 13.4328 77.456 14.1208 79.248 15.4968C81.04 16.8728 81.936 19.0648 81.936 22.0728Z" fill="#F3A85C"/>
<path d="M40.6659 33.2488V18.2248C40.6659 16.5608 40.1219 15.4408 39.0339 14.8648C40.2499 13.4888 41.7219 12.8008 43.4499 12.8008C46.2979 12.8008 47.8659 14.3368 48.1539 17.4088C49.4339 14.3368 51.5619 12.8008 54.5379 12.8008C56.0419 12.8008 57.2739 13.2488 58.2339 14.1448C59.2259 15.0408 59.7219 16.2408 59.7219 17.7448C59.7219 19.2488 59.3379 20.4488 58.5699 21.3448C57.8339 22.2088 56.6979 22.6408 55.1619 22.6408C54.9699 22.6408 54.5539 22.6088 53.9139 22.5448C54.0419 21.9688 54.1059 21.6008 54.1059 21.4408C54.1059 20.6408 53.8659 20.0168 53.3859 19.5688C52.9379 19.0888 52.3779 18.8488 51.7059 18.8488C49.9779 18.8488 48.8099 20.1608 48.2019 22.7848V33.4888C48.2019 35.2168 48.7299 36.3528 49.7859 36.8968C48.5699 38.2728 47.0979 38.9608 45.3699 38.9608C42.2339 38.9608 40.6659 37.0568 40.6659 33.2488Z" fill="#F3A85C"/>
<path d="M33.392 29.8008V42.9048C33.392 44.6328 33.92 45.7688 34.976 46.3128C33.76 47.6888 32.32 48.3768 30.656 48.3768C28.992 48.3768 27.776 47.9128 27.008 46.9848C26.24 46.0568 25.856 44.6168 25.856 42.6648V40.0728C24.032 42.5368 21.2 43.7688 17.36 43.7688C13.648 43.7688 10.224 42.4248 7.088 39.7368C5.584 38.4248 4.352 36.6488 3.392 34.4088C2.464 32.1688 2 29.6568 2 26.8728C2 21.1128 3.664 16.4408 6.992 12.8568C10.352 9.2408 15.088 7.4328 21.2 7.4328C24.624 7.4328 27.536 8.1368 29.936 9.5448C32.368 10.9528 33.584 12.6488 33.584 14.6328C33.584 15.7848 33.04 16.7608 31.952 17.5608C30.896 18.3288 29.68 18.7128 28.304 18.7128C26.928 18.7128 25.696 18.3768 24.608 17.7048C24.64 17.3848 24.656 17.0808 24.656 16.7928C24.656 15.3528 24.24 14.1368 23.408 13.1448C22.576 12.1528 21.328 11.6568 19.664 11.6568C16.752 11.6568 14.448 12.9048 12.752 15.4008C10.96 17.9608 10.064 21.2568 10.064 25.2888C10.064 29.3208 10.896 32.4568 12.56 34.6968C14.224 36.9048 16.56 38.0088 19.568 38.0088C23.76 38.0088 25.856 36.0728 25.856 32.2008V29.9448H24.32C22.656 29.9448 21.152 29.9768 19.808 30.0408C19.232 29.2088 18.944 28.2488 18.944 27.1608C18.944 26.0408 19.504 25.2728 20.624 24.8568C21.744 24.4088 23.664 24.1848 26.384 24.1848C29.104 24.1848 30.944 24.6168 31.904 25.4808C32.896 26.3448 33.392 27.7848 33.392 29.8008Z" fill="#F3A85C"/>
</mask>
<g mask="url(#mask0_1_2)">
<g filter="url(#filter1_fn_1_2)">
<rect x="-11" y="23.4328" width="239" height="65" fill="#F3C45C"/>
</g>
</g>
<defs>
<filter id="filter0_nn_1_2" x="140.571" y="2.14594" width="15.8583" height="42.5737" filterUnits="userSpaceOnUse" color-interpolation-filters="sRGB">
<feFlood flood-opacity="0" result="BackgroundImageFix"/>
<feBlend mode="normal" in="SourceGraphic" in2="BackgroundImageFix" result="shape"/>
<feTurbulence type="fractalNoise" baseFrequency="0.25 0.25" stitchTiles="stitch" numOctaves="3" result="noise" seed="9323" />
<feColorMatrix in="noise" type="luminanceToAlpha" result="alphaNoise" />
<feComponentTransfer in="alphaNoise" result="coloredNoise1">
<feFuncA type="discrete" tableValues="0 1 1 1 1 1 1 1 1 1 1 1 1 1 1 1 1 1 1 1 1 1 1 1 1 1 1 1 1 1 1 1 1 1 1 1 1 1 1 1 1 1 1 1 1 1 1 1 0 0 0 0 0 0 0 0 0 0 0 0 0 0 0 0 0 0 0 0 0 0 0 0 0 0 0 0 0 0 0 0 0 0 0 0 0 0 0 0 0 0 0 0 0 0 0 0 0 0 0 0 "/>
</feComponentTransfer>
<feComposite operator="in" in2="shape" in="coloredNoise1" result="noise1Clipped" />
<feFlood flood-color="#AF6508" result="color1Flood" />
<feComposite operator="in" in2="noise1Clipped" in="color1Flood" result="color1" />
<feMerge result="effect1_noise_1_2">
<feMergeNode in="shape" />
<feMergeNode in="color1" />
</feMerge>
<feTurbulence type="fractalNoise" baseFrequency="0.20408162474632263 0.20408162474632263" stitchTiles="stitch" numOctaves="3" result="noise" seed="8486" />
<feColorMatrix in="noise" type="luminanceToAlpha" result="alphaNoise" />
<feComponentTransfer in="alphaNoise" result="coloredNoise1">
<feFuncA type="discrete" tableValues="1 1 1 1 1 1 1 1 1 1 1 1 1 1 1 1 1 1 1 1 1 1 1 1 1 1 1 1 1 1 1 1 1 1 1 1 1 1 1 1 1 1 1 1 1 1 1 1 1 1 1 0 0 0 0 0 0 0 0 0 0 0 0 0 0 0 0 0 0 0 0 0 0 0 0 0 0 0 0 0 0 0 0 0 0 0 0 0 0 0 0 0 0 0 0 0 0 0 0 0 "/>
</feComponentTransfer>
<feComposite operator="in" in2="effect1_noise_1_2" in="coloredNoise1" result="noise1Clipped" />
<feFlood flood-color="#FBF0CC" result="color1Flood" />
<feComposite operator="in" in2="noise1Clipped" in="color1Flood" result="color1" />
<feMerge result="effect2_noise_1_2">
<feMergeNode in="effect1_noise_1_2" />
<feMergeNode in="color1" />
</feMerge>
</filter>
<filter id="filter1_fn_1_2" x="-15" y="19.4328" width="247" height="73" filterUnits="userSpaceOnUse" color-interpolation-filters="sRGB">
<feFlood flood-opacity="0" result="BackgroundImageFix"/>
<feBlend mode="normal" in="SourceGraphic" in2="BackgroundImageFix" result="shape"/>
<feGaussianBlur stdDeviation="2" result="effect1_foregroundBlur_1_2"/>
<feTurbulence type="fractalNoise" baseFrequency="0.14925374090671539 0.14925374090671539" stitchTiles="stitch" numOctaves="3" result="noise" seed="36" />
<feColorMatrix in="noise" type="luminanceToAlpha" result="alphaNoise" />
<feComponentTransfer in="alphaNoise" result="coloredNoise1">
<feFuncA type="discrete" tableValues="1 1 1 1 1 1 1 1 1 1 1 1 1 1 1 1 1 1 1 1 1 1 1 1 1 1 1 1 1 1 1 1 1 1 1 1 1 1 1 1 1 1 1 1 1 1 1 1 1 1 1 0 0 0 0 0 0 0 0 0 0 0 0 0 0 0 0 0 0 0 0 0 0 0 0 0 0 0 0 0 0 0 0 0 0 0 0 0 0 0 0 0 0 0 0 0 0 0 0 0 "/>
</feComponentTransfer>
<feComposite operator="in" in2="effect1_foregroundBlur_1_2" in="coloredNoise1" result="noise1Clipped" />
<feFlood flood-color="rgba(255, 0, 0, 0.07)" result="color1Flood" />
<feComposite operator="in" in2="noise1Clipped" in="color1Flood" result="color1" />
<feMerge result="effect2_noise_1_2">
<feMergeNode in="effect1_foregroundBlur_1_2" />
<feMergeNode in="color1" />
</feMerge>
</filter>
</defs>
</svg>
